<?xml version="1.0" encoding="UTF-8"?>
<svg id="Layer_1" data-name="Layer 1" xmlns="http://www.w3.org/2000/svg" viewBox="0 0 50 50">
  <defs>
    <style>
      .cls-1 {
        fill: #fff;
      }

      .cls-2 {
        fill: #0054e9;
        stroke: #fff;
        stroke-miterlimit: 10;
        stroke-width: 2px;
      }
    </style>
  </defs>
  <path class="cls-2" d="m25,49c-13.2,0-24-10.8-24-24S11.8,1,25,1s24,10.8,24,24-10.8,24-24,24Z"/>
  <g>
    <path class="cls-1" d="m35.16,24.73c.72.88,1.43,1.84,2.11,2.75.16.23.56.08.51-.2-.9-7.77-7.14-14.16-15.09-15.08-.28-.04-.44.35-.2.51,4.73,3.44,9.02,7.46,12.66,12.02h0Z"/>
    <path class="cls-1" d="m34.7,16.88c.13.14.25.29.37.43.41-.42,1.16-.96.9-1.64-.3-.98-1.66-2.25-2.64-1.4l-.65.65c.72.6,1.39,1.26,2.02,1.96Z"/>
    <path class="cls-1" d="m28.2,19.4l-14.27,14.27c-1.54,1.61.76,3.93,2.39,2.39l14.27-14.27c-.11-.15-1.71-1.75-2.39-2.4h0Z"/>
  </g>
</svg>