<?xml version="1.0" encoding="UTF-8"?>
<svg id="Layer_1" data-name="Layer 1" xmlns="http://www.w3.org/2000/svg" viewBox="0 0 50 50">
  <defs>
    <style>
      .cls-1 {
        fill: #fff;
      }

      .cls-2 {
        fill: #cc6131;
        stroke: #fff;
        stroke-miterlimit: 10;
        stroke-width: 2px;
      }
    </style>
  </defs>
  <path class="cls-2" d="m25,49c-13.2,0-24-10.8-24-24S11.8,1,25,1s24,10.8,24,24-10.8,24-24,24Z"/>
  <path class="cls-1" d="m25.86,10.15l4.24,8.6c.14.28.41.48.72.52l9.49,1.38h0c.36.05.66.31.78.65.11.35.02.73-.24.98l-6.86,6.69c-.23.22-.33.54-.28.85l1.62,9.45c.06.36-.09.72-.38.94-.3.21-.69.24-1.01.07l-8.48-4.46h0c-.28-.15-.61-.15-.89,0l-8.48,4.46h0c-.32.17-.71.14-1.01-.07-.3-.22-.44-.58-.38-.94l1.62-9.45c.05-.31-.05-.63-.28-.85l-6.86-6.69c-.26-.25-.36-.64-.24-.98.11-.35.41-.6.78-.65l9.49-1.38h0c.31-.05.58-.24.72-.52l4.24-8.6c.16-.33.49-.53.86-.53s.7.21.86.53h0Z"/>
</svg>