<?xml version="1.0" encoding="UTF-8"?>
<svg id="Layer_1" data-name="Layer 1" xmlns="http://www.w3.org/2000/svg" viewBox="0 0 50 50">
  <defs>
    <style>
      .cls-1 {
        fill: #292929;
        stroke: #fff;
        stroke-miterlimit: 10;
        stroke-width: 2px;
      }

      .cls-2 {
        fill: #fff;
      }
    </style>
  </defs>
  <path class="cls-1" d="m25,49c-13.2,0-24-10.8-24-24S11.8,1,25,1s24,10.8,24,24-10.8,24-24,24Z"/>
  <path class="cls-2" d="m34.57,34.35c0,.91-.65,1.7-1.55,1.86-2.61.47-5.26.71-7.91.71-2.65,0-5.3-.24-7.9-.71-.9-.16-1.56-.95-1.55-1.87,0-2.28.91-4.46,2.52-6.08,1.61-1.61,3.8-2.52,6.08-2.52h1.72c2.28,0,4.46.91,6.08,2.52,1.61,1.61,2.52,3.8,2.52,6.08h0Zm-9.46-9.46c1.6,0,3.13-.63,4.26-1.76,1.13-1.13,1.76-2.66,1.76-4.26s-.63-3.13-1.76-4.26-2.66-1.76-4.26-1.76-3.13.63-4.26,1.76-1.76,2.66-1.76,4.26c0,1.6.64,3.13,1.76,4.25,1.13,1.13,2.66,1.76,4.25,1.76h0Z"/>
</svg>