<?xml version="1.0" encoding="UTF-8"?>
<svg id="Layer_1" data-name="Layer 1" xmlns="http://www.w3.org/2000/svg" viewBox="0 0 50 50">
  <defs>
    <style>
      .cls-1 {
        fill: #fff;
        fill-rule: evenodd;
      }

      .cls-2 {
        fill: #0054e9;
        stroke: #fff;
        stroke-miterlimit: 10;
        stroke-width: 2px;
      }
    </style>
  </defs>
  <path class="cls-2" d="m25,49c-13.2,0-24-10.8-24-24S11.8,1,25,1s24,10.8,24,24-10.8,24-24,24Z"/>
  <path class="cls-1" d="m17.26,14.16c-.62,0-1.25.04-1.89.11-.43.05-.76.42-.76.85v1.16h-2.47c-.47,0-.86.38-.86.86v17.84c0,.47.38.86.86.86.14,0,.27-.03.39-.09,3.56-1.82,8.23-2.44,13.18-1.69.01,0,.02,0,.03,0,.02,0,.04,0,.06,0,.01,0,.02,0,.04,0,.01,0,.02,0,.04,0,.02,0,.04,0,.06,0,.01,0,.02,0,.03,0,4.95-.76,9.63-.13,13.18,1.69.42.22.94.05,1.15-.37.06-.12.09-.25.09-.39v-17.84c0-.47-.38-.86-.86-.86h-2.47v-1.16c0-.43-.33-.8-.76-.85-.63-.07-1.26-.11-1.89-.11-3.15,0-6.13.86-8.59,2.56-2.46-1.7-5.44-2.58-8.59-2.56h0Zm0,1.71c2.87,0,5.54.8,7.73,2.34v13.39c-2.54-1.49-5.54-2.18-8.67-1.99v-12.46h0,0v-1.23c.32-.03.63-.03.94-.04v-.02Zm17.16,0c.31,0,.63,0,.94.04v13.71c-3.13-.19-6.13.5-8.67,1.99v-13.39c2.18-1.55,4.85-2.36,7.73-2.34h0Zm-21.43,2.13h1.61v12.55c0,.47.38.86.86.86.03,0,.07,0,.1,0,2.21-.26,4.33-.04,6.26.63-3.19-.03-6.2.52-8.82,1.61v-15.64Zm24.08,0h1.61v15.64c-2.62-1.1-5.63-1.64-8.82-1.61,1.92-.66,4.05-.88,6.26-.63.47.05.89-.28.95-.75,0-.03,0-.07,0-.1v-12.55Z"/>
</svg>