<?xml version="1.0" encoding="UTF-8"?>
<svg id="Layer_1" data-name="Layer 1" xmlns="http://www.w3.org/2000/svg" viewBox="0 0 50 50">
  <defs>
    <style>
      .cls-1 {
        fill: #7045ff;
        stroke: #fff;
        stroke-miterlimit: 10;
        stroke-width: 2px;
      }

      .cls-2 {
        fill: #fff;
      }
    </style>
  </defs>
  <path class="cls-1" d="m25,49c-13.2,0-24-10.8-24-24S11.8,1,25,1s24,10.8,24,24-10.8,24-24,24Z"/>
  <path class="cls-2" d="m26.03,12.51c-.81-.4-1.76-.3-2.47.26l-8.33,6.48h-3.12c-1.93,0-3.52,1.58-3.52,3.52v3.52c0,1.93,1.58,3.52,3.52,3.52h3.07l8.26,7.35c.45.39,1,.6,1.55.6.33,0,.66-.07.97-.21.86-.39,1.38-1.21,1.38-2.14V14.6c0-.9-.5-1.7-1.31-2.1h0Zm-15.09,13.77v-3.52c0-.64.53-1.17,1.17-1.17h2.34v5.86h-2.34c-.64,0-1.17-.53-1.17-1.17Zm14.06,9.11l-8.2-7.29v-7.1l8.2-6.39v20.78Zm12.89-.9c-.19,0-.39-.05-.57-.15-.56-.32-.77-1.03-.46-1.59,2.93-5.27,2.94-10.25.01-15.25-.33-.56-.14-1.28.42-1.61s1.28-.14,1.61.42c3.34,5.68,3.34,11.59.01,17.57-.21.39-.61.6-1.03.6h.01Zm-4.69-2.34c-.26,0-.52-.08-.73-.26-.5-.4-.59-1.14-.19-1.65,2.8-3.5,2.8-6.76,0-10.25-.4-.5-.32-1.24.19-1.65s1.24-.32,1.65.19c3.45,4.31,3.45,8.87,0,13.18-.23.29-.57.45-.91.45h-.01Zm-3.52-2.34c-.3,0-.6-.12-.83-.34-.46-.46-.46-1.2,0-1.65,1.1-1.1,1.1-4.27,0-5.38-.46-.46-.46-1.2,0-1.65s1.2-.46,1.65,0c2.03,2.03,2.03,6.66,0,8.68-.23.23-.53.34-.83.34h.01Z"/>
</svg>