<?xml version="1.0" encoding="UTF-8"?>
<svg id="Layer_1" data-name="Layer 1" xmlns="http://www.w3.org/2000/svg" viewBox="0 0 50 50">
  <defs>
    <style>
      .cls-1 {
        fill: #7045ff;
        stroke: #fff;
        stroke-miterlimit: 10;
        stroke-width: 2px;
      }

      .cls-2 {
        fill: #fff;
      }
    </style>
  </defs>
  <path class="cls-1" d="m25,49c-13.2,0-24-10.8-24-24S11.8,1,25,1s24,10.8,24,24-10.8,24-24,24Z"/>
  <path class="cls-2" d="m34.6,18.1h-4.15l-.72-2.16c-.28-.86-1.09-1.44-1.99-1.44h-5.47c-.9,0-1.71.58-1.99,1.44l-.72,2.16h-4.15c-1.16,0-2.09.94-2.1,2.1v13.2c0,1.16.94,2.09,2.1,2.1h19.19c1.16,0,2.09-.94,2.1-2.1v-13.2c0-1.16-.94-2.09-2.1-2.1Zm-9.6,13.8h0c-1.51,0-2.96-.6-4.03-1.67-1.07-1.07-1.67-2.52-1.67-4.03s.6-2.96,1.67-4.03c1.07-1.07,2.52-1.67,4.03-1.67s2.96.6,4.03,1.67c1.07,1.07,1.67,2.52,1.67,4.03s-.6,2.96-1.67,4.03-2.52,1.67-4.03,1.67h0Zm3.9-5.7c0,1.58-.95,3-2.41,3.6-1.46.6-3.13.27-4.25-.84-1.12-1.11-1.45-2.79-.85-4.25.6-1.46,2.03-2.41,3.6-2.41,2.15,0,3.89,1.75,3.9,3.9h0Z"/>
</svg>