<?xml version="1.0" encoding="utf-8"?>
<!-- Generator: Adobe Illustrator 27.7.0, SVG Export Plug-In . SVG Version: 6.00 Build 0)  -->
<svg version="1.1" id="Layer_1" xmlns="http://www.w3.org/2000/svg" xmlns:xlink="http://www.w3.org/1999/xlink" x="0px" y="0px"
	 viewBox="0 0 50 50" style="enable-background:new 0 0 50 50;" xml:space="preserve">
<style type="text/css">
	.st0{fill:#292929;stroke:#FFFFFF;stroke-width:2;stroke-miterlimit:10;}
	.st1{fill:#FFFFFF;}
</style>
<path class="st0" d="M25,49C11.8,49,1,38.2,1,25S11.8,1,25,1s24,10.8,24,24S38.2,49,25,49z"/>
<path class="st1" d="M34.6,18.1h-4.1l-0.7-2.2c-0.3-0.9-1.1-1.4-2-1.4h-5.5c-0.9,0-1.7,0.6-2,1.4l-0.7,2.2h-4.1
	c-1.2,0-2.1,0.9-2.1,2.1v13.2c0,1.2,0.9,2.1,2.1,2.1h19.2c1.2,0,2.1-0.9,2.1-2.1V20.2C36.7,19,35.8,18.1,34.6,18.1z M25,31.9
	L25,31.9c-1.5,0-3-0.6-4-1.7s-1.7-2.5-1.7-4s0.6-3,1.7-4c1.1-1.1,2.5-1.7,4-1.7s3,0.6,4,1.7s1.7,2.5,1.7,4s-0.6,3-1.7,4
	S26.5,31.9,25,31.9L25,31.9z M28.9,26.2c0,1.6-1,3-2.4,3.6s-3.1,0.3-4.2-0.8c-1.1-1.1-1.5-2.8-0.9-4.2s2-2.4,3.6-2.4
	C27.1,22.3,28.9,24.1,28.9,26.2L28.9,26.2L28.9,26.2z"/>
</svg>
