<?xml version="1.0" encoding="UTF-8"?>
<svg id="Layer_1" data-name="Layer 1" xmlns="http://www.w3.org/2000/svg" viewBox="0 0 50 50">
  <defs>
    <style>
      .cls-1 {
        fill: #fff;
      }

      .cls-2 {
        fill: #542ae0;
        stroke: #fff;
        stroke-miterlimit: 10;
        stroke-width: 2px;
      }
    </style>
  </defs>
  <path class="cls-2" d="m25,49c-13.2,0-24-10.8-24-24S11.8,1,25,1s24,10.8,24,24-10.8,24-24,24Z"/>
  <g>
    <path class="cls-1" d="m16.92,36.54c4.86,0,11.53,0,16.39,0,.64,0,1.16-.52,1.16-1.16V14.39c0-.64-.52-1.16-1.16-1.16h-16.39c-.64,0-1.16.52-1.16,1.16v20.99c0,.64.52,1.16,1.16,1.16Zm9.93-2.32h-3.48v-2.74h3.48v2.74Zm-8.77-18.67h14.07v18.67h-2.97s0-3.9,0-3.9c0-.64-.52-1.16-1.16-1.16h-5.8c-.64,0-1.16.52-1.16,1.16v3.9h-2.97V15.55Z"/>
    <path class="cls-1" d="m21.36,19.39h1.7c.17,0,.31-.14.31-.31v-1.7c0-.17-.14-.31-.31-.31h-1.7c-.17,0-.31.14-.31.31v1.7c0,.17.14.31.31.31Z"/>
    <path class="cls-1" d="m27.16,19.39h1.7c.17,0,.31-.14.31-.31v-1.7c0-.17-.14-.31-.31-.31h-1.7c-.17,0-.31.14-.31.31v1.7c0,.17.14.31.31.31Z"/>
    <path class="cls-1" d="m21.36,23.73h1.7c.17,0,.31-.14.31-.31v-1.7c0-.17-.14-.31-.31-.31h-1.7c-.17,0-.31.14-.31.31v1.7c0,.17.14.31.31.31Z"/>
    <path class="cls-1" d="m27.16,23.73h1.7c.17,0,.31-.14.31-.31v-1.7c0-.17-.14-.31-.31-.31h-1.7c-.17,0-.31.14-.31.31v1.7c0,.17.14.31.31.31Z"/>
    <path class="cls-1" d="m21.36,28.07h1.7c.17,0,.31-.14.31-.31v-1.7c0-.17-.14-.31-.31-.31h-1.7c-.17,0-.31.14-.31.31v1.7c0,.17.14.31.31.31Z"/>
    <path class="cls-1" d="m27.16,28.07h1.7c.17,0,.31-.14.31-.31v-1.7c0-.17-.14-.31-.31-.31h-1.7c-.17,0-.31.14-.31.31v1.7c0,.17.14.31.31.31Z"/>
  </g>
</svg>