<?xml version="1.0" encoding="UTF-8"?>
<svg id="Layer_1" xmlns="http://www.w3.org/2000/svg" xmlns:xlink="http://www.w3.org/1999/xlink" viewBox="0 0 1046.7 1046.7">
  <defs>
    <style>
      .cls-1 {
        fill: #bfc5c0;
      }

      .cls-2 {
        fill: #365670;
      }

      .cls-3 {
        fill: none;
      }

      .cls-4 {
        clip-path: url(#clippath-1);
      }

      .cls-5 {
        fill: #4c687f;
      }

      .cls-6 {
        fill: #72af8f;
      }

      .cls-7 {
        fill: #26250e;
      }

      .cls-8 {
        clip-path: url(#clippath);
      }
    </style>
    <clipPath id="clippath">
      <rect class="cls-3" width="1046.7" height="1046.7"/>
    </clipPath>
    <clipPath id="clippath-1">
      <rect class="cls-3" x="1.3" y="2.7" width="1045" height="1043.8"/>
    </clipPath>
  </defs>
  <g id="Layer_1-2" data-name="Layer_1">
    <path class="cls-1" d="M155.7,155.7c203.7-203.7,534-203.7,737.6,0,203.6,203.7,203.7,534,0,737.6-203.7,203.6-534,203.7-737.6,0s-203.7-533.8,0-737.6h0Z"/>
    <g class="cls-8">
      <g class="cls-4">
        <path class="cls-6" d="M654.4,154l79.5-9.6v2.5c0,10.8-.2,21.5-.8,31.5l-.2,1.9-80.1,7.9,1.7-34.2h-.1ZM695.5,828.5c16.5,97.7,17.3,182.8,17.3,182.8,33.4-12.9,65.1-29.2,94.9-48.4l-17.7-139-94.5,4.6h0ZM834.7,105.2c.2,24.6-.6,48.6-2.7,72l-.2,2.7,77.2-7.7c-22.5-24.6-47.4-47.2-74.3-67ZM844.5,821.2l13.1,105c20.7-17.1,39.9-35.7,57.6-55.7l-6.9-52.4-63.9,3.1h.1ZM525.9,210.4L503.4,3.4c22.3-.8,44.9-.4,67.8,1.7,24.6,2.3,48.8,6.1,72.2,11.5l-42.6,106-3.5,80.5-71.4,7.3h0ZM522.4,3l7.1,97.9,41.7-4.8-7.1-91.4c-14.2-1.3-28-1.7-41.7-1.7ZM131.7,808c-11.9,4.2-24.2,8.6-36.5,12.7,7.7,11.3,15.9,22.1,24.6,32.8l16.1-5.4-1.3-41.1-2.9,1ZM224.8,303l-184.5,27.8c-9.4,23.4-17.1,47.6-23,72.4l212-40.5-4.6-59.7h.1ZM313.7,102.7l-4.2-53.4c-12.7,5.6-25,11.9-37.1,18.6l3.1,42.4,38.2-7.5v-.1ZM210.8,108.1c-60.1,45.5-110.4,103.7-146.5,171.1l157.8-23-11.3-148.2v.1ZM451.4,967.7l1,73.7c8.6,1.3,17.1,2.1,25.7,2.9,9.4.8,18.6,1.5,27.8,1.7l-2.5-89.1-52,10.9v-.1ZM404.9,444.3l-5.6-45.3-47.2,12.1,5,46.5,47.8-13.4v.1ZM845.2,334.5l-5-27.8-23.6,9,4.6,27.3,24-8.6v.1ZM748.8,487.5l-9.6-66.4-19.6,7.5,9.4,66.2,19.8-7.3h0ZM354.2,555.1l-4.2-39.9-38,11.3,6.5,86.6,100.6-33-4.6-39.6-60.3,14.6h0ZM961.4,626.9l79.9-30.9c-.4,2.5-.8,5-1,7.7l-76.8,29.6,24.6,77.2-6.5,2.1-24.4-76.8-144.4,55.7,11.1,87.6,160.5-7.5c-4.2,7.7-8.6,15.4-13.1,23l-144.4,6.7,17.1,135.8c-6.7,5.2-13.6,10.2-20.7,15.2l-19-150-467.6,21.9c3.8,50.3,9.4,123.9,14.4,192.4-2.3-.8-4.6-1.7-6.9-2.5-5.2-70.9-10.9-146.9-14.4-193.6l-55.5-151.9-223.7,74.1c-1-2.1-1.9-4.2-2.7-6.1l224.5-74.5-10.6-140.6c-28.4,7.9-104.8,29-180.7,49.9-28.6,7.9-53.2,14.6-74.1,20.2-.2-1-.2-2.3-.4-3.3-.2-1-.2-2.3-.4-3.3-4-34.8-4.6-70.5-1.5-106.8.6-7.9,1.7-15.6,2.7-23.4,0-.4,0-.6.2-1,.4-3.5,1-6.9,1.5-10.4.6-4.2,1.3-8.3,2.1-12.3l239.6-54.3-7.1-94.1-195.3,29.2c1-2.5,2.3-4.8,3.3-7.3l191.8-28.4-13.8-181.8c7.1-4.8,14.2-9.4,21.3-14l14.4,192.4,113.9-16.9-34.6-77.2-10.9-139.8c2.1-.8,4.4-1.7,6.5-2.5,43.2-16.3,88.9-27.1,136.3-31.3,1.7-.2,3.6-.4,5.2-.4l25.3,226.2,109.6-11.3,4.4-98.9.2-.6,39.4-98.9c2.1.6,4.4,1.3,6.5,1.9l-39.4,99.1-4.4,96.8,300.1-30.9c4.2,4.8,8.1,9.8,11.9,14.8.4.6.8,1.3,1.3,1.7,1,1.5,2.3,2.9,3.3,4.4,6.5,8.6,12.7,17.1,18.6,25.9.2.4.6.8.8,1.3.6.8,1,1.7,1.7,2.5,2.3,3.6,4.8,7.3,7.1,10.9,8.6,13.8,16.5,28,23.8,42.6.6,1.3,1.3,2.7,1.9,4s.8,1.7,1.3,2.5c1.3,2.5,2.3,5,3.5,7.3,3.8,8.1,7.3,16.3,10.6,24.6l-94.7,33.4,8.1,34.4c23.6-7.9,59.7-21.5,98.3-35.7,6.9,21.3,12.7,43.2,16.9,65.5.2,1,.4,1.9.4,2.9.2,1.3.4,2.5.6,3.8l-124.6,43.2,47.4,149-.3-.2ZM261.5,514.6l-8.8-115.4-119.8,27.1v2.5h.6l-1.3,121.7c49-13.6,95.6-26.5,129.2-35.9h.1ZM863.7,284.7l7.9,53.2,98.1-37.8-8.3-44.2-97.7,28.8h0ZM870.2,362.3l-94.5,36.3,14.4,114.6,115.4-40.1-35.3-110.8h0ZM598.5,488.3l1,2.1-2.3.8c-.6.2-1.3.4-1.9.6l.4,1.3-59.9,21.9,11.1,85.6,131-48.4,90.6-31.3-17.3-136.7,113.9-43.8-18.4-122.1-90.8,9.4c-12.1,53.2-49.5,88.3-88.9,125.2-11.3,10.4-22.7,21.3-33.8,32.6-8.8,9-16.5,17.9-22.3,26.5l-.8,1.3-3.8,5.6-.4.6c-15.2,24.4-17.7,47-7.5,68.9l.1-.1ZM529.4,517.6l-77.6,28.4-.2-.6,10,86.8,78.7-29.2-10.8-85.3-.1-.1ZM429.3,359.4l13.1,106,123.1-82.4-28-24.4-23.4-18.4-84.9,19.2h.1ZM389.2,261.1l34.2,76.6,71.6-16.3-8.3-74.7-97.5,14.4h0ZM475.6,147.2l-4.6-40.3-117.9,26.3-5.2,1.5,3.1,39.4,124.6-26.9h0ZM294.5,654.9l157.1-52-15.2-131.3-13.6-110.8-147.9,33.6,19.6,260.4v.1ZM473.9,795.5l-21.7-185.9-156.9,52,50.9,140,127.7-6v-.1ZM547.8,663.2v-1.9c-.2-1.3-.2-2.5-.2-3.8l-6-47.6-78.9,29.2,7.7,67,60.3-21.3c9.2-2.9,16.5-12.7,17.1-21.7v.1ZM743.5,598.9c4.2-17.7-1-35.7-15.9-55.3l-1-1.3-46.3,16.1-11.7,4.4c6.3,5.6,21.1,19,24,23.4.6,1,1.9,2.1,3.3,3.3,3.3,2.9,7.3,6.7,6.7,11.5-1,9-8.8,24.8-16.9,31.1-6.1,4.4-11.3,6.7-16.5,8.8-4.2,1.7-8.1,3.3-12.5,6.1-6.9,4.4-14.2,8.3-21.5,12.3-33.2,18.4-64.7,35.7-52,81.8,5.2,18.6,9,34.2,12.3,48.8l56.1-2.7c-1.3-8.1-2.9-15.9-4.4-23.4-.4-2.1-3.3-10-6.5-18.2-3.1-8.3-5.6-15.4-7.7-21.5l-2.7.4-1-6.7,1.7-.2c-4.2-12.7-5.6-19.6-4.4-22.3,4.8-10.6,28.4-21.7,53.2-33.4,13.8-6.5,26.9-12.7,31.5-16.9,17.7-15.4,28.6-31.1,32.1-46.1h.1ZM801.3,780.1l-10.4-82.4-65.3,11.1,8.3,74.7,67.4-3.3v-.1ZM955.1,629.4l-47.6-149.6-116.4,40.5,20.9,164.4,143.1-55.3h0ZM884.4,604.6l35.5-15.2-9.6-29.6-31.7,10.6,5.8,34.2ZM328.5,678.4l36.9,102,81.8-3.5-15.6-132.9-103.1,34.4ZM1024.8,458.1l-87,30.3,35.1,110.6,71.4-27.3v-.6c1.5-17.1,2.1-34,2.1-50.9l-21.5-62-.1-.1ZM174.3,576c-27.8,7.7-59.3,16.5-90.6,25.3l-1.5.4-2.5,40.3,98.3-30-1-36.9-2.7,1v-.1ZM842.5,697.2l6.7,53.6,116-11.5-24-75.7-98.7,33.6h0Z"/>
      </g>
    </g>
    <path class="cls-5" d="M682.8,918.2c3.8,35.9,5.2,69.7,4.4,102.2-2.3.8-4.6,1.5-6.9,2.1-26.9,8.3-54.7,14.8-83.3,18.8-2.3.4-4.6.6-6.9.8,6.9-46.5,9-93.7,6.7-144.2-.6-12.9-4.6-31.3-9.2-52.4-2.3-10.2-4.6-21.3-6.9-32.6l6.7-.4,71.4-3.3,6.9-.4c6.9,30.3,12.3,64.5,17.1,109.3v.1ZM755.6,205.4l6.9-.6,60.3-6.3,7.1-.6c9.6-25.9,15.7-53.4,17.9-82.4-2.1-1.7-4.2-3.3-6.3-5-25.5-19.6-53-36.9-82-51.5-2.5-1.3-4.8-2.5-7.3-3.5,7.1,46.9,12.5,100.4,3.3,150l.1-.1ZM757.3,227.5l-7.3.8c-4.6,15.4-10.6,30.3-19,44.2-14,23.4-36.9,44.4-61.3,66.6-36.9,33.6-75.3,68.4-79.7,113.1-4.6,46.1,28.8,73.9,58,98.5,10.9,9,21.1,17.5,28.6,26.5,12.5,14.6,17.7,26.1,15.7,35.3-2.9,13.6-21.7,22.1-43.2,32.1-18.8,8.6-40.1,18.4-55.1,33.6-24.6,25-24.2,69.5-17.5,112.9l6.7-.4,68.9-3.3,7.1-.4c-2.3-6.5-5-12.7-7.5-19-6.3-14.8-12.1-29-9.6-38,5.2-19.4,24.4-32.3,44.4-45.9,26.9-18.2,57.4-38.6,64.5-80.1,7.9-47.4-15.4-77.4-38.2-106.6-10-12.7-19.4-24.8-26.3-38.4-30.3-59.5-6.3-81,46.1-128.1,3.1-2.9,6.5-5.8,10-9,33.8-30.5,59.5-63.9,77-100.4l-7.5.8-54.7,5.2h-.1ZM389.6,919.4c1,15.7,2.1,30.5,3.1,44.9l45.9-9.4-.6-43.2c-18.2,2.9-34.6,5.4-48.4,7.7ZM67.9,776.7c6.3,11.5,13.1,22.7,20.2,33.6,14.8-5.2,29.6-10.4,43.8-15.4l-1.3-38.6-62.8,20.5.1-.1ZM404,457l-43.6,12.5,2.9,26.9,44-12.9-3.3-26.5ZM276.8,126.9l4.8,64.5,38.6-5.8-5.2-66.1-38.2,7.5v-.1ZM579.5,181.2l-2.3-29.4-42.4,6.5,2.3,27.1,42.4-4.2h0ZM438.7,280.3l5.6,35.7,30.7-7.7-4.2-34.6-32.1,6.7v-.1ZM784.7,332.5l4,23,19.8-7.1-4.2-23.2-19.6,7.3h0ZM822.2,534l4.6,37.6,33.6-12.1-9-35.7-29.2,10.2h0ZM513.2,853.1l.8,31.3c14-2.1,27.3-4.2,39.6-6.3-1.3-10-2.7-19.8-4.4-30l-36.1,5h.1ZM226.5,609.4l-35.7,10.8,1,38.6,37.6-12.3-2.9-37.1ZM203.1,785.3v37.4l36.9-12.7-2.9-36.7-34,12.1v-.1ZM698.3,73.9l-38.4,6.3-2.1,26.3,39.4-6.9,1-25.7h.1ZM838.3,430.1l27.3-9.8-11.5-35.9-23.4,9,7.5,36.7h.1Z"/>
    <path class="cls-7" d="M1041.3,596l-79.9,30.9-47.6-149.4,124.6-43.2c-.4-2.3-.8-4.4-1.3-6.7l-125.4,43.6-35.3-111,124.6-48c-3.1-6.9-6.3-13.6-9.6-20.2l-15,5.8-8.8-48.4c-3.1-5-6.3-9.8-9.4-14.6l3.3,18.4-1-3.8-97.9,28.6-9-60.3,86-8.8c-5.4-7.1-10.9-14-16.7-20.7l-163.8,16.9-3.5.4-131.9,13.6,4.4-96.8,39.4-99.1c-2.1-.6-4.4-1.3-6.5-1.9l-39.4,98.9-.2.6-4.4,98.9-109.6,11.3L482.3,4.6c-7.5.6-14.8,1.5-22.3,2.3l10.4,93.1-122.7,27.3-6.9-91c-2.1.8-4.4,1.7-6.5,2.5l10.9,139.8,34.6,77.2-113.9,16.9-14.4-192.4c-7.3,4.4-14.4,9.2-21.3,14l13.8,181.8-191.8,28.4c-1,2.5-2.3,4.8-3.3,7.3l195.7-29,7.1,94.1L12.2,431.2c-1.5,7.9-2.7,15.9-3.8,23.8l245-55.5,8.8,115.4c-33.4,9.4-80.1,22.3-129.4,35.9l1.3-121.7h-6.7l-1.5,123.5c-40.3,11.1-82,22.5-118.9,32.6.2,2.3.6,4.6.8,6.7,20.9-5.6,45.3-12.3,74.1-20.2,76-20.9,152.1-41.9,180.7-49.9l10.6,140.6-225.4,74.1c.8,2.1,1.9,4.2,2.7,6.1l223.7-73.9,55.3,151.9c3.5,46.7,9.2,122.7,14.4,193.6,2.3.8,4.6,1.7,6.9,2.5-5-68.2-10.4-142.1-14.4-192.4l247.5-11.5,3.3-.2,49.9-2.3,22.1-1,6.3-.2,138.6-6.5,19,150c7.1-4.8,13.8-10,20.7-15.2l-17.1-135.8,144.4-6.7c4.6-7.5,9-15.2,13.1-23l-160.5,7.5-11.1-87.6,144.4-55.7,24.4,76.8,6.5-2.1-24.6-77.2,76.8-29.6c.6-2.7,1-5.2,1.3-7.9l-.1-.1ZM905.5,473.3l-115.4,40.1-14.4-114.6,94.5-36.3,35.3,110.8h0ZM962,255.7l7.9,44.2-98.3,37.8-7.9-53.2,98.3-28.8h0ZM495.2,321.4l-71.6,16.3-34.2-76.6,97.4-14.4,8.3,74.7h.1ZM515.9,339.8l49.7,43.2-123.1,82.4-13.1-106,86.6-19.6h-.1ZM348.3,134.2l122.9-27.3,4.6,40.3-124.4,26.7-3.1-39.6v-.1ZM353.1,180.3l123.5-26.5,9.6,86.2-99.7,14.8-33.4-74.5ZM273.2,371.7l-6.9-92.2,116.2-17.3,34.4,77-143.8,32.6.1-.1ZM274.9,394.2l147.9-33.6,13.6,110.8,15.2,131.3-157.1,52-19.6-260.4v-.1ZM346.4,801.3l-50.9-140,156.9-52,21.7,185.9-127.7,6v.1ZM461.8,632.1l-10-86.8.2.6,77.6-28.4,11.1,85.6-78.9,29h0ZM541.3,609.8l6.5,49.9c1.3,9.6-6.9,21.7-17.1,25.2l-60.3,21.3-7.7-67.2,78.7-29.2h-.1ZM659.4,786.7l-7.1.4-68.9,3.3-6.7.4-96,4.6-10.2-87.2,1.7,4.8,60.7-21.3c13.4-4.6,23.2-19.6,21.5-32.6l-6.7-51.5,116.4-43c-1.9-1.7-3.8-3.3-5.6-5l-111.6,41.3-11.1-85.6,59.9-21.9-2.3-6.3-142.7,52.2-7.7-66.1,127.5-85.3,31.3,27.3c1-2.1,2.3-4,3.3-5.8l-86.4-75.3-9-80.5,240.2-25.3,5.8-.6,91-9.4,18.4,122.1-113.9,43.8,17.3,136.7-31.3,10.8c1,1.9,2.3,4,3.3,6.1l28.8-10,20.7,163.4-140,23.4c-1.9,2.5-3.3,5-4.8,7.5l73.7-12.3,8.1,73.9-67.6,3.1v-.1ZM733.7,783.4l-8.3-74.7,65.3-11.1,10.4,82.4-67.4,3.3v.1ZM811.8,684.7l-20.9-164.4,116.4-40.5,47.6,149.6-143.1,55.3h0ZM236.1,758.6l-88.3,30.9-1-38.2,86.8-28,2.5,35.3ZM438.9,970.2l1,69.3c-14.4-2.3-28.8-5.2-42.8-8.8-1-15.9-2.3-33-3.5-51.1l45.3-9.4h0ZM409,497.7l3.3,28.6-44.9,10.9-2.7-26.3,44.2-13.1.1-.1ZM867.3,433l9,28-70.3,24-3.5-28.8,64.9-23.2h-.1ZM119.6,682.4l-82.8,27.1c-4.8-12.5-9.2-25.5-12.9-38.4l94.9-29,.8,40.3h0ZM465,418l-4-37.1,41.7-12.1,7.5,32.6-45.3,16.7.1-.1ZM339.6,417l4.6,42.4-36.3,10.4-3.3-43.8,35.1-9h-.1ZM225.4,595.2l-34.8,10.6-.8-31.9c12.3-3.3,23.6-6.7,33.4-9.4l2.3,30.7h-.1ZM895,157.4l-11.3,1.7.4-12.1c3.8,3.3,7.3,6.9,10.9,10.4h0ZM865.4,569.3l9.2,37.1-43.4,17.7-5-40.7,39.2-14.2v.1ZM504.2,899l1.3,44.4-56.5,11.7-.6-47.2,1.9-.2c16.7-2.7,34.2-5.4,51.5-8.1l2.5-.6h-.1ZM559.7,942.8v2.7c.2,31.9-1.5,64.1-4.8,95.8,0,0-33.2.6-39,.6l-2.5-89.5,46.3-9.6h0ZM231.3,856.2l7.7,105c-32.8-21.5-62.8-46.3-89.7-74.3l82-30.7Z"/>
    <path class="cls-2" d="M573.5,108.8l2.5,28.2-42.6,6.3-2.5-28.8,42.6-5.6v-.1ZM735.4,73.9l-22.5,4.6-3.3,32.8-50.7,8.6v20l76.2-9.4.4-56.5-.1-.1ZM555.1,893.2c-13.1,2.1-26.9,4.2-40.9,6.5l1,39.4,41.9-8.6v-1.7c-.2-12.1-.8-23.8-2.1-35.7l.1.1ZM176.2,624.6l-42.6,12.9.8,39.9,42.8-14-1-38.8h0ZM953,297.8l-7.9-25.7-58.4,20.4,3.1,26.3,63.2-21.1v.1ZM728.5,325.6c3.1-2.9,6.5-5.8,10-9,32.6-29.4,57-60.5,74.1-94.7l-55.1,5.6c-4.8,16.9-11.3,33-20.4,48.4-14.4,24.2-39,46.5-62.6,68-36.1,32.8-73.5,66.8-77.6,108.7-4.2,42.6,27.5,69.3,55.7,92.6,11.1,9.2,21.5,17.9,29.4,27.1,14,16.3,19.6,29.6,17.1,40.9-3.8,16.9-23.8,26.1-46.9,36.7-18.2,8.3-38.8,17.7-53,32.3-22.7,23.2-22.1,65.9-15.4,107.9l68.9-3.3c-2.1-5.6-4.4-11.3-6.7-16.7-6.9-16.7-12.9-31.1-9.8-42.4,6.1-21.9,26.1-35.5,47.2-49.7,27.1-18.2,55.1-36.9,61.6-75.7,7.3-44.4-15-73.5-36.9-101.4-9.8-12.5-19.8-25.5-26.9-39.4-32.8-64.1-5.8-88.1,47.6-136.1l-.3.2ZM762.5,204.5l60.3-6.3c10.4-27.3,16.7-56.6,18.8-88.1-25.5-19.6-53-36.9-82-51.5,6.9,46.1,11.7,97.4,2.9,145.9ZM658.8,809.3l-71.4,3.3c2.1,10.8,4.4,21.5,6.7,31.5,4.8,21.5,8.8,40.1,9.4,53.6,2.3,50.5.4,97.4-6.3,143.8,28.4-4,56.3-10.2,83.3-18.8,1-32.8-.4-67.2-4.2-103.7-5-45.3-10.4-79.5-17.5-109.8v.1ZM796.5,409.3l4,32.1,24.2-8.8-6.5-31.9-21.7,8.6h0ZM865.4,519l8.8,35.7,29.8-10.6-11.1-34.6-27.5,9.6v-.1ZM325,201.4l-42.2,6.5,2.7,36.7,55.3-8.1-15.9-35.1h.1ZM20.1,657.8l47.2-14.4,2.1-35.9c-21.3,5.8-40.3,11.3-57.2,15.9,2.3,11.7,5,23.2,7.9,34.4ZM383.8,868.5l2.7,38,2.5-.4c14-2.3,30.9-5,49.3-7.9l1.9-.2-.6-37.1-55.7,7.7-.1-.1ZM147.2,844.3l42.6-14.6v-41.9l-44,15.4,1.5,41.1h-.1ZM306.4,482.5l2.3,32.1,42.2-12.3-3.3-31.7-41.1,11.9h-.1Z"/>
  </g>
</svg>